<?xml version="1.0" encoding="UTF-8"?> <svg xmlns="http://www.w3.org/2000/svg" width="90" height="89" viewBox="0 0 90 89"><g fill="none" fill-rule="nonzero" transform="translate(-1)"><path fill="#00DED9" d="M1 27.26a7.71 7.71 0 0 0 1.08 5c2.12 3.13 6.59 3.45 9.67 5.65a9.23 9.23 0 0 1 3.74 8.2c-.38 4.38-3.89 7.81-5.67 11.89-2.88 6.54-.82 14.59 3.86 20s11.76 8.34 18.85 9.39c7.09 1.05 14.32.38 21.44-.49a41.4 41.4 0 0 1 7.7-.48 46.72 46.72 0 0 1 5.53.85c6.89 1.28 15 1.46 19.73-3.75 3.19-3.54 3.84-8.66 3.84-13.43a26 26 0 0 0-1.65-10.24c-4.36-10.26-17.84-13.53-23.76-22.97-2.34-3.74-3.3-8.16-4.65-12.36C57.16 13.49 49.65 2.33 37.42.29 25.82-1.65 21 6.58 12.55 12.7 7.57 16.29 1.63 20.59 1 27.26z"></path><ellipse cx="46.59" cy="73.27" fill="#162D74" rx="32.45" ry="3.07"></ellipse><path fill="#FFF" stroke="#162D74" d="M24.06 57.78l-6.69 15.49h3.34l13.16-9.24M67.71 57.78l6.69 15.49h-3.34L57.9 64.03"></path><path fill="#162D74" d="M18.41 37.26c0-15.188 12.312-27.5 27.5-27.5s27.5 12.312 27.5 27.5V44h-55v-6.74z"></path><circle cx="45.89" cy="44" r="27.48" fill="#FFF" stroke="#162D74"></circle><circle cx="45.89" cy="44" r="24.71" fill="#FFF" stroke="#162D74"></circle><path fill="#FFF" stroke="#162D74" d="M70.15 9.32L63 17.88a1.76 1.76 0 0 0 .38 2.59 1.76 1.76 0 0 0 2.32-.34l7.39-8.85"></path><path fill="#FFF" stroke="#162D74" d="M61.58 5.35c-4.44 4.44 11.66 20.55 16.11 16.1 4.303-4.472 4.234-11.567-.156-15.954C73.144 1.11 66.05 1.044 61.58 5.35zM21.62 9.32l7.14 8.56a1.76 1.76 0 0 1-.38 2.59 1.76 1.76 0 0 1-2.32-.34l-7.39-8.85"></path><path fill="#FFF" stroke="#162D74" d="M30.19 5.35c4.45 4.44-11.66 20.55-16.1 16.1-4.446-4.446-4.446-11.654 0-16.1 4.446-4.446 11.654-4.446 16.1 0zM67.85 14a21.66 21.66 0 0 0 8.2 5.34M45.89 64.8v-4M45.89 27v-4M24.98 43.9h4M62.79 43.9h4M31.1 58.68l2.83-2.83M57.84 31.95l2.83-2.83M31.1 29.12l2.83 2.83M57.84 55.85l2.83 2.83"></path><path fill="#162D74" d="M38.47 48.15v2.05h-9.59v-1.62l5.17-4.91a5.81 5.81 0 0 0 1.18-1.46 2.84 2.84 0 0 0 .31-1.21 1.67 1.67 0 0 0-.62-1.39 2.88 2.88 0 0 0-1.8-.48 3.64 3.64 0 0 0-3 1.35l-1.69-1.3a5 5 0 0 1 2.05-1.59 7.1 7.1 0 0 1 2.84-.59 5.31 5.31 0 0 1 3.39 1A3.31 3.31 0 0 1 38 40.73a4.63 4.63 0 0 1-.44 2 7.69 7.69 0 0 1-1.72 2.12l-3.47 3.31 6.1-.01zM50.73 47.24h-2.31v3h-2.34v-3h-7.14v-1.67l6.41-8.39h2.59l-6 8h4.25v-2.61h2.27v2.63h2.31zM60.64 41.25a4.32 4.32 0 0 1 1.14 3.26v5.69h-2.33v-5.4a2.79 2.79 0 0 0-.61-2 2.28 2.28 0 0 0-1.75-.66 2.67 2.67 0 0 0-2 .78 3.08 3.08 0 0 0-.74 2.22v5H52V36.4h2.33v5a3.8 3.8 0 0 1 1.42-.94 5.13 5.13 0 0 1 1.89-.32 4.15 4.15 0 0 1 3 1.11z"></path></g></svg> 