<?xml version="1.0" encoding="UTF-8"?> <svg xmlns="http://www.w3.org/2000/svg" width="81" height="86" viewBox="0 0 81 86"><g fill="none" fill-rule="evenodd" transform="translate(0 -1)"><path fill="#FD0" fill-rule="nonzero" d="M9.55 62.74a18.89 18.89 0 0 1-4.42-12.8C5.44 45.1 8 40.68 9.49 36.07c1.4-4.2 2-9.36-.87-13.15C5.92 19.31 1 17.78.14 12.84-1.64 3 14.13-.56 21.59 1.61c5.74 1.67 10.14 6 15.52 8.57 5.38 2.57 10.58 2.91 16.24 3.27 5.66.36 12.53 3.25 17.28 6.4 5.46 3.62 9.78 9.65 9.55 16.2-.18 5.48-3.39 10.31-5.55 15.34-1.38 3.22-2.34 7-1.69 10.52.57 3.09 2.92 5.09 3.49 8.19 1.14 6.12-3 12.43-8.57 14.77-13.93 5.84-23.64-9.71-36.58-11.54-3.55-.51-6.07-.28-9.53-1.79a34.4 34.4 0 0 1-9.66-6.06 24.39 24.39 0 0 1-2.54-2.74z"></path><path fill="#FFF" fill-rule="nonzero" stroke="#162D74" d="M17.64 29.12h31.69v48.22H17.64z"></path><path fill="#162D74" fill-rule="nonzero" d="M25.89 28.73h23.17v38.25H25.89z"></path><path fill="#FFF" fill-rule="nonzero" stroke="#162D74" d="M27.55 16.81h31.69v48.22H27.55z"></path><path fill="#162D74" fill-rule="nonzero" d="M35.13 16.81h23.83v40.67H35.13z"></path><path fill="#FFF" fill-rule="nonzero" stroke="#162D74" d="M37.06 7.31h31.69v48.22H37.06z"></path><path fill="#162D74" fill-rule="nonzero" d="M48.53 30.55v14.23l5.54-5.53 5.59 5.59V30.55"></path><circle cx="54.21" cy="23.15" r="9.34" fill="#FFF" fill-rule="nonzero" stroke="#162D74"></circle><path stroke="#162D74" stroke-linecap="round" d="M54.21 29.5H54"></path><path stroke="#162D74" stroke-dasharray=".51" stroke-linecap="round" d="M52 29.1a6.47 6.47 0 0 1 1-12.41"></path><path stroke="#162D74" stroke-linecap="round" d="M54 16.57h.25"></path></g></svg> 