<?xml version="1.0" encoding="UTF-8"?> <svg xmlns="http://www.w3.org/2000/svg" width="100" height="101" viewBox="0 0 100 101"><g fill="none" fill-rule="evenodd"><path fill="#6E31CC" fill-rule="nonzero" d="M63.79 31.8a18.83 18.83 0 0 1 10.46 8.55c2.28 4.27 2.46 9.35 3.57 14.08 1 4.29 3.23 9 7.63 10.71 4.19 1.65 9.14.38 12.49 4.11C104.59 76.65 93.09 88 85.61 90c-5.75 1.59-11.79.19-17.68.86-5.89.67-10.51 3.14-15.5 5.77-4.99 2.63-12.35 3.81-18 3.62C27.85 100 21 97.18 17.78 91.5c-2.71-4.75-2.52-10.5-3.33-15.94-.51-3.46-1.68-7.18-4.08-9.82-2.09-2.31-5.16-2.83-7.26-5.13-4.17-4.6-4-12.13-.46-17 8.77-12.27 25.17-4.14 37.12-9.37 3.28-1.43 5.31-3 9-3.49a34.48 34.48 0 0 1 11.38.1 22.58 22.58 0 0 1 3.64.95z"></path><path fill="#FFF" fill-rule="nonzero" stroke="#162D74" d="M61.56 10.05v7s-3.13-4-3.16-4c-.31-.1-17.32.09-17.63 0V.5h20.79v9.55zM16.45 23.94v7s3.13-4 3.15-4c.31-.09 17.33.09 17.64 0V14.39H16.45v9.55z"></path><path fill="#162D74" fill-rule="nonzero" d="M23.09 43.53h6.26v39.16h-6.26zM24.89 38.41h2.66v5.12h-2.66zM25.55 33.68h1.33v4.73h-1.33zM26.02 29.82h1v3.86h-1z"></path><path stroke="#162D74" stroke-width="3" d="M50.39 28.47v-3.65"></path><path fill="#162D74" fill-rule="nonzero" d="M40.67 33.68h19.44v49.01H40.67zM44.31 28.13h12.15v5.55H44.31zM62.63 22.1h20.84v61.02H62.63zM66.63 15.6h12.86v6.49H66.63z"></path><path fill="#FFF" fill-rule="nonzero" stroke="#162D74" d="M12.22 55.7h34.82v26.99H12.22zM15.59 50.07h7.88v5.63h-7.88zM17.84 63.45v-4M22.34 63.45v-4M26.85 63.45v-4M31.35 63.45v-4M35.85 63.45v-4M40.35 63.45v-4M17.84 70.07v-3.99M22.34 70.07v-3.99M26.85 70.07v-3.99M31.35 70.07v-3.99M35.85 70.07v-3.99M40.35 70.07v-3.99M17.84 76.7v-4M22.34 76.7v-4M26.85 76.7v-4M31.35 76.7v-4M35.85 76.7v-4M40.35 76.7v-4M36.36 82.69V78.7M40.91 82.69V78.7M45.46 82.69V78.7M36.36 82.69V78.7M40.91 82.69V78.7M45.46 82.69V78.7M36.36 82.69V78.7M40.91 82.69V78.7M45.46 82.69V78.7M36.36 82.69V78.7M40.91 82.69V78.7M45.46 82.69V78.7"></path><path fill="#FFF" fill-rule="nonzero" stroke="#162D74" d="M37.74 77.38h5.86v5.31h-5.86z"></path><path fill="#FFF" fill-rule="nonzero" stroke="#162D74" d="M29.73 39.83h21.24v42.86H29.73zM35.79 50.11v-4M40.35 50.11v-4M44.9 50.11v-4M35.79 57.69V53.7M40.35 57.69V53.7M44.9 57.69V53.7M35.79 65.28v-3.99M40.35 65.28v-3.99M44.9 65.28v-3.99M35.79 72.87v-4M40.35 72.87v-4M44.9 72.87v-4"></path><path fill="#FFF" fill-rule="nonzero" stroke="#162D74" d="M37.42 77.32h5.86v5.31h-5.86zM46.66 48.93h26.9v33.76h-26.9zM65.03 44.72h6.42v4.21h-6.42z"></path><path fill="#162D74" fill-rule="nonzero" d="M67.43 42.34h1.4v2.39h-1.4z"></path><path fill="#FFF" fill-rule="nonzero" stroke="#162D74" d="M51.16 82.69v-29M55.66 82.69v-29M60.17 82.69v-29M64.67 82.69v-29M69.17 82.69v-29"></path><path fill="#162D74" fill-rule="nonzero" d="M21.68 19.68h2v2h-2zM25.89 19.68h2v2h-2zM30.09 19.68h2v2h-2zM45.76 5.7h2v2h-2zM49.97 5.7h2v2h-2zM54.17 5.7h2v2h-2z"></path></g></svg> 