<?xml version="1.0" encoding="UTF-8"?> <svg xmlns="http://www.w3.org/2000/svg" width="77" height="86" viewBox="0 0 77 86"><g fill="none" fill-rule="evenodd"><path fill="#FF5A65" fill-rule="nonzero" d="M76.49 20.91a17 17 0 0 1-.18 1.81c-.47 3.24-2 6.14-3.12 9.17-2.62 7.19-3.08 15.71-7.91 21.34-5.18 6-13.58 6.72-20.65 9.7-2.54 1.07-3.63 4.75-4.89 7.16-3.68 7-9.42 13.32-16.73 14.84a17.74 17.74 0 0 1-15.39-4.4 13.5 13.5 0 0 1-3.88-5.69c-1.52-4.72.41-9.77 2.09-14.36s3.06-10.06.65-14.33C4.75 43.09 1.31 41.23.35 37.8c-1.8-6.42 3.76-15.1 8.88-18.62 6.25-4.28 14.46-4 20.88-7.91 4.23-2.6 7.3-6.83 11.66-9.18C46.33-.38 51.9-.49 56.9.87c8.45 2.31 19.97 10.05 19.59 20.04z"></path><path fill="#162D74" fill-rule="nonzero" d="M8.59 11.95h50.7v41.11H8.59zM1.37 60.65H28.1v21.68H1.37zM40.46 60.65h26.73v21.68H40.46z"></path><path fill="#FFF" fill-rule="nonzero" stroke="#162D74" d="M11.21 8.77h50.7v41.11h-50.7zM3.65 58.25h26.73v21.68H3.65zM42.74 58.25h26.73v21.68H42.74z"></path><path stroke="#162D74" d="M18.82 49.88s-.09-16.44 11.29-17.05l6.45 6.67 6.18-6.5s10.11.24 11.56 16.9M30.11 32.83h4.47v-3.51h4.65v3.51l3.51.15"></path><path fill="#FFF" fill-rule="nonzero" stroke="#162D74" d="M43.11 21c0 4.49-2.63 9.88-5.88 9.88s-5.87-5.41-5.87-9.88c0-4.47 2.63-6.39 5.87-6.39s5.88 1.88 5.88 6.39z"></path><path fill="#162D74" fill-rule="nonzero" d="M29 22c-.89-.71-1.65-1.52-1.08-2.89.258-.477.545-.938.86-1.38.74-1.35.31-3.11 1-4.48A3.07 3.07 0 0 1 33.62 12c.42.2.79.49 1.23.66 1.18.46 2.49-.06 3.67-.51 1.18-.45 2.59-.83 3.66-.14.47.31.8.79 1.27 1.09a5.68 5.68 0 0 0 2.17.58 3.9 3.9 0 0 1 2.21 1 1.9 1.9 0 0 1 .35 2.26 4.86 4.86 0 0 1-2.82 1.59c0 1.3-1.69 4.62-2.62 5.53-.31-.83 1.34-4 .69-4.57a1.46 1.46 0 0 0-1.54-.09 10.4 10.4 0 0 1-1.47.7c-1 .28-2.09-.28-3.16-.34a1 1 0 0 0-.64.13 1.39 1.39 0 0 0-.36.52A2.46 2.46 0 0 1 35 21.5c-.58.22-1.32.26-1.63.79a1.77 1.77 0 0 0-.15 1c0 .5.47 2.62-.13 2.92-.41.2-1.22-1.12-1.5-1.49a11.46 11.46 0 0 0-1.77-2.09c-.3-.19-.57-.39-.82-.63z"></path><path stroke="#36495E" stroke-dasharray=".5" stroke-linecap="round" d="M36.56 42.64v6.24"></path><path stroke="#162D74" d="M25.44 79.78c0-4.21-3.77-7.62-8.42-7.62s-8.43 3.41-8.43 7.62"></path><circle cx="17.02" cy="66.37" r="4.19" stroke="#162D74"></circle><path stroke="#162D74" d="M64.53 79.78c0-4.21-3.77-7.62-8.43-7.62s-8.42 3.41-8.42 7.62"></path><circle cx="56.1" cy="66.37" r="4.19" stroke="#162D74"></circle></g></svg> 